<?xml version="1.0" encoding="UTF-8"?>
<svg width="32px" height="32px" viewBox="0 0 32 32" version="1.1" xmlns="http://www.w3.org/2000/svg" xmlns:xlink="http://www.w3.org/1999/xlink">
    <title>play</title>
    <g id="play" stroke="none" stroke-width="1" fill="none" fill-rule="evenodd">
        <path d="M15.6994243,7.71382602 C17.0637856,7.71382602 20.9499717,11.8151836 23.5868226,15.5821134 C24.6967216,17.1676835 25.5922583,18.7251167 25.988257,19.9687446 C26.1450503,20.4611517 26.2242175,20.8975333 26.1845351,21.2560846 C26.1588726,21.4879589 26.0806342,21.6828284 25.9066427,21.8085126 C24.4829834,22.8369049 20.0638983,23.3005757 15.6795596,23.3005757 C11.2980292,23.3005757 6.89299307,22.838998 5.49571617,21.8110716 C5.32475032,21.6852982 5.25042811,21.4897333 5.22712292,21.2578498 C5.19083547,20.8967947 5.2732061,20.4573073 5.43339423,19.9613477 C5.83686977,18.7121442 6.73805602,17.147874 7.85175296,15.5568784 C10.4827775,11.798272 14.3381538,7.71382602 15.6994243,7.71382602 Z" id="Triangle" stroke="#3A3A3A" fill="#787878" transform="translate(15.706625, 15.507201) rotate(-270.000000) translate(-15.706625, -15.507201) "></path>
    </g>
</svg>