<?xml version="1.0" encoding="UTF-8"?>
<svg width="32px" height="32px" viewBox="0 0 32 32" version="1.1" xmlns="http://www.w3.org/2000/svg" xmlns:xlink="http://www.w3.org/1999/xlink">
    <title>prev</title>
    <g id="prev" stroke="none" stroke-width="1" fill="none" fill-rule="evenodd">
        <g id="Group" transform="translate(15.706625, 15.507201) rotate(-180.000000) translate(-15.706625, -15.507201) translate(3.413250, 4.519661)" fill="#787878" stroke="#3A3A3A">
            <path d="M8.28617398,3.19416454 C9.65053537,3.19416454 13.5367214,7.29552209 16.1735723,11.0624519 C17.2834714,12.648022 18.179008,14.2054552 18.5750067,15.4490832 C18.7318,15.9414902 18.8109672,16.3778718 18.7712849,16.7364231 C18.7456224,16.9682974 18.6673839,17.1631669 18.4933924,17.2888511 C17.0697332,18.3172434 12.650648,18.7809143 8.26630937,18.7809143 C3.88477889,18.7809143 -0.520257206,18.3193365 -1.91753411,17.2914101 C-2.08849995,17.1656367 -2.16282216,16.9700718 -2.18612736,16.7381883 C-2.2224148,16.3771332 -2.14004417,15.9376458 -1.97985604,15.4416862 C-1.5763805,14.1924827 -0.675194252,12.6282125 0.438502682,11.0372169 C3.0695272,7.27861047 6.92490349,3.19416454 8.28617398,3.19416454 Z" id="Triangle" transform="translate(8.293375, 10.987539) rotate(-270.000000) translate(-8.293375, -10.987539) "></path>
            <path d="M16.286174,3.19416454 C17.6505354,3.19416454 21.5367214,7.29552209 24.1735723,11.0624519 C25.2834714,12.648022 26.179008,14.2054552 26.5750067,15.4490832 C26.7318,15.9414902 26.8109672,16.3778718 26.7712849,16.7364231 C26.7456224,16.9682974 26.6673839,17.1631669 26.4933924,17.2888511 C25.0697332,18.3172434 20.650648,18.7809143 16.2663094,18.7809143 C11.8847789,18.7809143 7.47974279,18.3193365 6.08246589,17.2914101 C5.91150005,17.1656367 5.83717784,16.9700718 5.81387264,16.7381883 C5.7775852,16.3771332 5.85995583,15.9376458 6.02014396,15.4416862 C6.4236195,14.1924827 7.32480575,12.6282125 8.43850268,11.0372169 C11.0695272,7.27861047 14.9249035,3.19416454 16.286174,3.19416454 Z" id="Triangle" transform="translate(16.293375, 10.987539) rotate(-270.000000) translate(-16.293375, -10.987539) "></path>
        </g>
    </g>
</svg>